<svg width="50" height="24" viewBox="0 0 50 24" fill="none" xmlns="http://www.w3.org/2000/svg">
<path d="M0 23.2912V2.47778H16.1156V6.90808H5.5007V10.595H13.7071V14.728H5.5007V18.8609H16.1156V23.2912H0Z" fill="#C65138"/>
<path d="M33.4084 23.2912L27.5212 14.4009L25.2912 16.7499V23.2912H19.7905V2.47778H25.2912V4.8862C25.2912 6.15483 25.083 7.22523 24.6668 8.09742C24.2505 8.94978 23.6459 9.74267 22.853 10.4761L24.1613 11.7844L32.3083 2.47778H39.3551L31.446 10.7734L40.2471 23.2912H33.4084Z" fill="#C65138"/>
<path d="M47.3674 3.71667V1.85834L49.4323 1.85835L49.4223 3.71669L47.3674 3.71667Z" fill="#C65138"/>
<path d="M45.3026 5.57502V3.71669L47.3674 3.71667L47.3574 5.57503L45.3026 5.57502Z" fill="#C65138"/>
<path d="M45.3026 1.85833V0L47.3674 2.3076e-06L47.3574 1.85834L45.3026 1.85833Z" fill="#C65138"/>
<path d="M43.2378 3.71667V1.85834L45.3026 1.85833L45.2926 3.71669L43.2378 3.71667Z" fill="#C65138"/>
</svg>
