<svg width="27" height="23" viewBox="0 0 27 23" fill="none" xmlns="http://www.w3.org/2000/svg">
<path fill-rule="evenodd" clip-rule="evenodd" d="M13.5 21.9375C20.2103 21.9375 25.65 17.2533 25.65 11.475C25.65 5.69672 20.2103 1.0125 13.5 1.0125C6.78974 1.0125 1.35 5.69672 1.35 11.475C1.35 17.2533 6.78974 21.9375 13.5 21.9375ZM8.31937 9.89212L11.9576 13.5304L18.6806 6.80737L20.4255 8.55224L12.8284 16.1494C12.5989 16.3789 12.285 16.5105 11.9576 16.5105C11.6302 16.5105 11.3164 16.3789 11.0869 16.1494L6.57449 11.637L8.31937 9.89212Z" fill="#2FA767"/>
<path d="M15.525 0H11.475C5.14687 0 0 5.14687 0 11.475C0 17.8031 5.14687 22.95 11.475 22.95H15.525C21.8531 22.95 27 17.8031 27 11.475C27 5.14687 21.8531 0 15.525 0ZM15.525 20.4862H11.475C6.507 20.4862 2.46375 16.443 2.46375 11.475C2.46375 6.507 6.507 2.46375 11.475 2.46375H15.525C20.493 2.46375 24.5362 6.507 24.5362 11.475C24.5362 16.443 20.493 20.4862 15.525 20.4862Z" fill="#2FA767"/>
</svg>
