<svg width="158" height="43" viewBox="0 0 158 43" fill="none" xmlns="http://www.w3.org/2000/svg">
<path fill-rule="evenodd" clip-rule="evenodd" d="M124.786 7.84547C124.307 7.30292 123.881 6.77472 123.505 6.26949C124.08 5.72981 124.757 5.16429 125.515 4.5959C126.273 4.02751 127.028 3.51654 127.722 3.08881C126.999 3.33856 126.244 3.58544 125.457 3.8237C124.671 4.06197 123.861 4.283 123.101 4.47821H123.014C122.997 3.7462 122.997 2.97686 123.014 2.18169C123.04 1.42097 123.086 0.694696 123.144 0C122.761 0.765506 122.384 1.54919 122.013 2.35106C121.666 3.09743 121.331 3.83327 121.008 4.55858C119.597 4.27606 118.241 3.77021 116.989 3.06011C117.403 3.57395 117.85 4.09928 118.295 4.63035C118.74 5.16142 119.196 5.65804 119.641 6.14318V6.21208C119.01 6.80781 118.339 7.35932 117.632 7.8627C116.91 8.38111 116.151 8.84645 115.361 9.25494C116.065 9.01673 116.82 8.7842 117.626 8.56888C118.502 8.33635 119.348 8.14976 120.121 7.99475C120.15 8.70382 120.156 9.47313 120.121 10.2913C120.086 11.0721 120.015 11.8041 119.925 12.4758C120.302 11.7869 120.68 11.0634 121.051 10.3056C121.469 9.46549 121.851 8.64638 122.199 7.84834L124.209 8.59468L126.218 9.33248C125.756 8.89901 125.273 8.39951 124.786 7.84547Z" fill="#231F20"/>
<path fill-rule="evenodd" clip-rule="evenodd" d="M48.5792 12.7704C49.2136 9.93133 49.6557 5.92104 46.099 6.01864L44.3766 6.7076C43.1652 7.51138 40.5816 10.4394 40.174 11.9437H40.4611C40.771 11.1428 41.5318 9.93416 42.3212 9.60125L42.7346 9.53229C43.7422 11.0767 42.4877 14.5847 42.0456 16.0774L39.0717 26.9629C38.6496 28.47 37.8401 30.7866 38.3138 32.7501C38.7875 34.7136 40.8974 35.4887 42.792 34.3347C44.8302 33.0975 46.5239 30.2268 47.5458 27.9963L47.408 27.8585C46.4923 28.6767 46.3028 29.934 45.1344 30.5454L44.8474 30.4766L44.6407 30.4076C44.1556 28.3982 45.0484 26.05 45.5364 24.4137L48.5792 12.7704Z" fill="#231F20"/>
<path fill-rule="evenodd" clip-rule="evenodd" d="M111.876 13.3542C109.293 12.602 107.528 14.7407 106.571 15.9723C103.918 19.3969 102.369 23.5306 100.646 27.96L99.3373 31.6919H99.2686L99.1304 31.6229L100.853 25.3535C102.084 21.2599 103.121 16.9568 104.091 12.6078C104.72 9.7917 105.145 5.82448 101.611 5.92496C99.042 7.15072 96.8257 8.99939 95.7549 11.6433L95.6166 11.85H95.8236C96.5904 11.1667 96.8282 9.97547 97.8329 9.50748L98.2468 9.43861C99.1072 10.8739 97.8647 15.1799 97.4886 16.6152L95.353 25.4339L92.8722 34.4477L98.8668 34.3788C100.098 29.846 101.898 24.9229 104.102 21.1509C105.021 19.5777 105.67 17.9931 107.479 17.2927C107.693 17.2879 107.906 17.3353 108.099 17.4305C110.602 21.3576 105.176 25.9649 102.242 26.5247V26.5936C103.104 29.1944 103.433 32.7512 105.4 34.241C108.738 36.7557 112.996 30.1015 113.725 27.9026L113.587 27.7648C112.833 28.5399 112.439 30.1704 111.245 30.4517C109.775 30.7991 106.293 26.3984 105.871 25.3535L105.664 25.1468L108.42 24.5956C110.682 23.9095 112.823 22.5862 113.725 20.5308C114.887 17.9099 114.314 14.0661 111.876 13.3542Z" fill="#231F20"/>
<path fill-rule="evenodd" clip-rule="evenodd" d="M39.2604 13.6298H32.7154C30.9184 18.2745 29.6553 23.1805 27.1349 27.0645C26.7559 27.6386 24.9101 30.5408 23.6212 29.6824C22.8117 29.1428 23.8738 26.5248 24.1034 25.8932C25.0536 23.2263 26.4344 20.7864 27.066 17.8324C27.62 15.2489 26.6124 13.1647 24.1724 13.2164C20.9974 14.7005 19.4215 17.0258 17.9029 20.106V20.1749L18.1095 20.2438C18.4511 19.3826 19.3296 18.0477 20.1764 17.6946H20.6587C21.5199 18.2372 20.3171 21.1395 20.0386 21.8284C18.9478 24.4923 15.3681 31.7206 19.143 33.8851C21.6462 35.3204 24.1465 32.8516 25.1369 31.5426C27.4621 28.4682 29.1099 24.6531 30.6486 20.7949L32.302 16.1101V15.9723L32.4398 16.1101C31.1451 19.7989 30.6284 23.5737 29.9595 27.8797C29.4801 30.98 30.7433 35.6792 28.6506 37.1117C26.6756 38.4637 18.3162 36.463 16.3068 36.0094C16.0628 36.8907 15.5403 38.1767 15.8934 39.3853C16.4073 41.1421 18.9535 42.276 21.5429 41.6588C24.4594 40.9641 26.7387 39.1556 28.7769 37.5251C31.0102 35.7395 33.4273 32.9005 34.633 30.1533L39.249 13.6872L39.2604 13.6298Z" fill="#231F20"/>
<path fill-rule="evenodd" clip-rule="evenodd" d="M85.7649 13.6988C83.5803 12.2376 81.0542 14.1523 80.0466 15.4211C77.2821 18.909 75.6459 23.08 73.8459 27.6157L72.4106 31.6805H72.2728C73.4211 27.3573 74.8163 23.2379 75.7865 18.6592C76.3377 16.0555 76.0018 13.1562 73.3063 13.205C72.969 13.2317 72.6384 13.3131 72.3274 13.4461C72.0344 13.5806 71.761 13.7544 71.515 13.9628C70.9409 14.4508 69.1984 16.8163 67.0368 20.1635L67.1746 20.2323H67.2435C67.7286 19.2936 68.5152 17.6689 69.8615 17.6143C70.5849 18.8745 69.5744 21.3231 69.2414 22.5748L67.0368 30.5782L65.7967 34.3674H71.9169C73.7598 29.6078 75.0746 24.7048 77.5663 20.6572C78.0055 19.9395 79.5758 17.2124 80.9422 17.6946C81.9412 18.0506 80.8934 20.973 80.6551 21.6217C79.7652 24.1536 76.6104 30.1389 78.106 33.3913C78.7232 34.7406 80.7671 35.1769 82.2397 34.287C84.4559 32.9493 85.8367 30.1475 87.1198 27.8797L86.9129 27.742H86.8442C86.4887 28.6835 85.5725 30.2767 84.4329 30.4288L84.1458 30.0844C83.7267 29.0021 84.5534 27.4376 84.8348 26.6396C85.8624 23.8264 89.0493 15.8948 85.7649 13.6988Z" fill="#231F20"/>
<path fill-rule="evenodd" clip-rule="evenodd" d="M122.279 30.4288L121.992 30.36C121.077 29.7858 121.932 27.4146 122.199 26.5707C122.988 24.0675 127.435 13.0786 121.648 13.2049C118.491 14.6862 116.871 17.0029 115.379 20.0945L115.516 20.2323C116.223 19.3998 116.595 18.1569 117.652 17.6832H118.134L118.341 17.7521C118.801 20.3127 117.388 23.1087 116.756 25.1239L115.723 29.3265C115.462 30.3542 115.149 32.0594 115.585 33.1846C116.159 34.6545 118.186 35.2544 119.788 34.287C121.39 33.3195 124.002 29.8318 124.61 27.8797V27.8108L124.472 27.7419C123.755 28.6892 123.373 29.8547 122.279 30.4288Z" fill="#231F20"/>
<path fill-rule="evenodd" clip-rule="evenodd" d="M154.592 30.0958C154.181 29.0222 154.939 27.5123 155.212 26.7199C156.199 23.8923 159.517 15.7771 156.038 13.6298C153.604 12.1227 151.136 14.5226 150.113 15.8345C147.722 18.9003 146.094 22.724 144.533 26.6511L142.811 31.5311L142.742 31.669H142.672C143.379 27.4606 145.072 23.5594 145.979 19.2678C146.493 16.8334 146.117 14.0231 144.257 13.3428C141.84 12.4557 139.951 14.5771 139.021 15.7541C136.317 19.2333 134.784 23.4733 133.027 27.9601L131.718 31.692H131.581C132.729 27.3458 134.127 23.1977 135.094 18.6018C135.64 16.0182 135.289 13.1677 132.614 13.228C131.968 13.515 131.354 13.6097 130.822 13.9858C129.465 14.9475 126.804 18.4296 126.344 20.1864L126.482 20.2553H126.551C127.028 19.3137 127.699 18.2918 128.56 17.7061L129.18 17.6373C129.881 18.9463 128.982 21.4466 128.629 22.7355L126.62 29.9695L125.104 34.3788H131.236C133.004 29.8432 134.218 25.0779 136.541 21.1509C137.324 19.8247 138.123 17.7722 140.124 17.7061L140.468 18.1195C140.996 19.5548 140.023 21.8083 139.71 22.9422L137.574 30.314L136.139 34.4478L142.34 34.3788L143.775 30.1762C145.038 26.9123 146.092 23.7316 147.771 20.9442C148.554 19.6439 149.304 17.7865 151.284 17.7061L151.629 18.1195C152.085 19.3166 151.175 21.0447 150.871 21.9088C150.01 24.3546 147.234 30.159 148.46 33.2077C149.086 34.7693 151.192 35.2171 152.801 34.2411C154.81 33.001 156.532 30.1159 157.554 27.9027L157.347 27.7649C157.023 28.2012 155.343 31.4652 154.592 30.0958Z" fill="#231F20"/>
<path fill-rule="evenodd" clip-rule="evenodd" d="M15.7671 25.8357C15.0408 27.983 10.887 32.0708 7.91298 29.9006C6.05568 28.537 6.10161 25.0607 6.53508 22.1843C10.4621 21.125 14.6762 21.1537 16.8005 18.3721C18.2703 16.4545 17.0674 14.1178 15.2159 13.492C14.3719 13.2049 13.1576 13.2738 12.0582 13.2853C11.2288 13.3562 10.408 13.5051 9.60666 13.7303C8.69189 14.0009 7.8055 14.3595 6.95993 14.801C3.86824 16.466 2.07983 19.4945 1.85592 19.8677C0.604894 22.0825 -0.0350922 24.5899 0.00148436 27.1333C0.00148436 28.9935 0.268455 30.3829 0.966024 31.5426C5.72268 39.4254 14.6992 31.6143 16.0542 25.8243L15.7671 25.8357ZM10.9444 13.7791L11.7022 13.8479C12.7788 14.2843 13.2495 16.2794 12.5978 17.5798C11.4611 19.8074 9.01527 20.8265 6.60397 21.8169C7.10633 18.4582 8.43831 15.1914 10.9444 13.7791Z" fill="#231F20"/>
<path fill-rule="evenodd" clip-rule="evenodd" d="M65.5785 18.7969C65.9564 18.4262 66.2362 17.9674 66.3926 17.4617C66.5492 16.956 66.5774 16.4194 66.4749 15.9C66.3724 15.3807 66.1423 14.8949 65.8055 14.4866C65.4686 14.0783 65.0355 13.7602 64.5451 13.5609C63.6839 13.2107 62.3864 13.2738 61.1692 13.2738C60.7902 13.3197 60.308 13.3915 59.7597 13.5063C59.2706 13.6032 58.7868 13.7249 58.3101 13.8709C57.5889 14.1044 56.8864 14.3923 56.2088 14.7321C54.8364 15.488 53.6143 16.4892 52.6032 17.686C50.8349 19.7729 49.7699 22.4599 49.1814 26.0309C48.8169 28.2414 49.391 30.4489 50.2148 31.7493C54.9772 39.2819 63.9939 31.5254 65.1651 25.8242H64.8781C64.1575 28.0978 59.9377 32.0478 56.9551 29.8202C55.0433 28.3849 55.4107 25.0406 55.6461 22.1728C59.4669 21.1566 63.216 21.1595 65.5785 18.7969ZM60.0669 13.7791L60.8248 13.8479C62.0821 14.356 62.3088 16.4315 61.6515 17.706C60.5635 19.8074 58.0775 20.9872 55.7264 21.8398C56.4671 18.3721 57.4718 15.3866 60.0669 13.7791Z" fill="#231F20"/>
</svg>
