<svg width="30" height="22" viewBox="0 0 30 22" fill="none" xmlns="http://www.w3.org/2000/svg">
<path fill-rule="evenodd" clip-rule="evenodd" d="M27.5 0H8.73532C7.84192 0 7.11768 0.703553 7.11768 1.57143C7.11768 2.4393 7.84192 3.14286 8.73532 3.14286H27.5C28.3934 3.14286 29.1177 2.4393 29.1177 1.57143C29.1177 0.703553 28.3934 0 27.5 0ZM27.5 18.8571H12.6177C11.7243 18.8571 11 19.5607 11 20.4286C11 21.2964 11.7243 22 12.6177 22H27.5C28.3934 22 29.1177 21.2964 29.1177 20.4286C29.1177 19.5607 28.3934 18.8571 27.5 18.8571ZM27.5 9.42857H1.61768C0.724274 9.42857 2.88486e-05 10.1321 2.88486e-05 11C2.88486e-05 11.8679 0.724274 12.5714 1.61768 12.5714H27.5C28.3934 12.5714 29.1177 11.8679 29.1177 11C29.1177 10.1321 28.3934 9.42857 27.5 9.42857Z" fill="black"/>
</svg>
